<svg xmlns="http://www.w3.org/2000/svg" width="512" height="512" viewBox="0 0 512 512"><path fill="#fff" d="m254.9 229.5 173.4-10.9 75.9 35.7.2 179.9-173.6 10.7-75.9-37.1V229.5z"/><path fill="#d12b26" d="M506.7 437.2c-11.1.5-22.1 1.5-33.2 2-10.5.5-20.9 1.5-31.4 2-11.9.5-23.8 1.7-35.8 2.1-7.5.2-14.9 1-22.4 1.5-4.2.3-8.3.2-12.5.6-5.9.6-11.8.8-17.7 1.2-4.1.3-8.2 0-12.2.6-2.6.3-5.3 0-7.8.6-3.5.7-6.3-.5-9.2-1.9-7.9-3.8-15.7-7.8-23.6-11.6l-33.6-16.2c-4.4-2.1-8.7-4.3-13.1-6.4-1.6-.8-2.4-1.9-2.2-3.7v-3.5c.2-11.2-.1-22.4-.1-33.5 0-7.4.2-14.8 0-22.2-.4-9.7.2-19.5-.1-29.2-.4-11.6.2-23.1 0-34.7-.2-9.3.1-18.7-.1-28-.2-7.5 0-15 0-22.5 0-2-.3-4.1-.2-6.1 0-2.4.5-2.9 2.9-3 11.2-.6 22.3-1.2 33.5-1.8 8.7-.5 17.5-1.2 26.2-1.7 9.2-.5 18.4-.9 27.7-1.5 8.2-.5 16.5-1.1 24.7-1.6 6.4-.4 12.8-.7 19.2-1l21.3-1.2c6.7-.4 13.4-.7 20.1-1.1 1.5 0 2.9.4 4.2 1 7.8 3.6 15.6 7.1 23.3 10.7 15.9 7.3 31.9 14.5 47.8 21.8 4.8 2.2 4.9 2.4 4.9 7.7 0 8-.3 16-.1 23.9.2 10.9-.2 21.8 0 32.7.2 10.5-.2 21 0 31.5.2 9.9-.1 19.8 0 29.7.3 15.8-.2 31.5-.3 47.3 0 1.3-.2 2.5.3 3.7 0 3.9-.1 7.8-.2 11.7Zm-4.6-74c0-8.8.2-16.6-.1-24.4-.2-7.2 0-14.4 0-21.6v-57.8c0-2.9-.5-3.4-3.4-3.4-3.3 0-6.6.3-9.9.4-6.4.3-12.8.7-19.2 1.1-9.3.5-18.6 1.1-27.9 1.6-6.1.3-12.2.8-18.3 1.1-7.4.4-14.7.9-22.1 1.2-5.9.3-11.8.6-17.8 1.1-8.7.6-17.5.9-26.2 1.6-6.9.5-13.8.5-20.7 1.3-3.1.4-3.4.6-3.6 3.7-.2 3.3.2 6.6.2 9.9 0 11.5-.5 22.9 0 34.4.3 6.2.1 12.4.1 18.7 0 19.8 0 39.7.2 59.5 0 15.6.3 31.1 0 46.7v.6c0 2.4.3 2.7 2.7 2.8 1.4 0 2.7 0 4.1-.2l18.3-1.2c6.4-.4 12.8-.6 19.2-1.1 7-.5 14-.9 21-1.3 5.6-.3 11.2-.8 16.9-1 8.7-.4 17.5-1.1 26.2-1.6 3.9-.2 7.8-.3 11.6-.6 10.9-.9 21.9-1.3 32.9-2.1 4.6-.3 9.1-.6 13.7-.9 1.4 0 2.1-.7 2.2-2.2v-2.3c0-9.4.1-18.9 0-28.3 0-12.3-.5-24.5 0-35.7Z"/><path fill="#d12b26" d="M346.7 323.7c0-4 .3-8 .2-12-.4-8.7.1-17.5-.4-26.2-.4-6-.3-6.2 5.6-6.7 6.1-.5 12.2-.8 18.3-1.2 9.2-.6 18.4-1.3 27.6-1.6 6.2-.3 12.4-.8 18.6-1.1 6.8-.3 13.6-.8 20.4-1.2 5.9-.3 11.8-.7 17.8-1 9-.5 18-1.1 27.1-1.6 1.2 0 2.3-.1 3.5-.1 2.5 0 3.1.5 3.1 3.1 0 4.8-.1 9.5-.1 14.3 0 13.1-.3 26.3 0 39.4.2 11.6-.3 23.1 0 34.7.3 10.8-.3 21.6 0 32.4.2 6.6.1 13.2 0 19.8 0 3.3-.2 3.5-3.4 3.7-6.1.5-12.2.9-18.3 1.2-8.7.5-17.5 1-26.2 1.6-6.3.5-12.6.7-18.9 1.1-6.6.4-13.2.9-19.8 1.2-5.6.2-11.2.7-16.9 1.1-7.1.4-14.2.8-21.2 1.3-4.7.3-9.3.6-14 .9-2 .1-2.6-.4-2.8-2.5v-15.1c0-12.2 0-24.3-.2-36.5v-16.6c.2-10.8-.6-21.6-.2-32.4Zm60.1-1c0-5.2.2-10.3.3-15.5 0-2.2.3-2.5 2.5-2.7 2-.2 4.1-.4 6.1-.4 4.7-.2 9.3-.5 14-.7 4-.2 7.9-.7 11.9-.5 6.5.4 10.9 3.9 12.6 10.2.3 1 .4 2.1.7 3.1.5 1.9 1.4 2.4 3.5 2 1.5-.3 1.9-.9 1.8-2.8-.3-3.9-.5-7.8-.9-11.6-.4-2.9 0-5.8-.8-8.7-.5-1.9-.6-2.1-2.5-2-9.2.5-18.4 1-27.6 1.6-3.4.2-6.8.1-10.2.5-6.2.7-12.4.7-18.6 1.2-7.8.6-15.5.9-23.3 1.4-1.3 0-2.2.3-2.4 1.9-.2 2.3 0 3.3 1.6 3.8 2.9 1 4.3 3.2 5.1 5.9.3.9.5 1.9.6 2.8.3 3 .5 6 .5 9 0 8-.2 15.9 0 23.9.1 13.8.5 27.6 0 41.4 0 2.5-.6 4.8-1.4 7.1-.8 2.1-2 3.9-4.2 4.6-2.1.6-2.3 2.1-2 4.5.1 1 .9 1.6 1.9 1.4 3-.5 6-.3 9-.5 6.6-.5 13.2-.9 19.8-1.2 5.8-.3 11.6-.9 17.5-1.1 5.8-.2 11.6-1 17.4-1.1 5.9-.2 11.8-1 17.8-1 2.2 0 2.6-.4 2.8-2.5.5-4.2.9-8.5 1.2-12.8.2-2.6.2-5.2.3-7.9 0-1.3-.4-2-1.8-2.1-1.9-.2-2.8.2-3.1 1.7-.3 1.3-.5 2.7-.8 4-1.5 6-5.2 9.8-11.3 11.2-4.4 1-8.9.8-13.3 1.2-6.9.6-13.8.9-20.7 1.3-2.7.2-3.4-.4-3.4-3 0-11.5.5-22.9 0-34.4-.1-2.8.5-3.3 3.4-3.5 4.8-.3 9.7-.6 14.5-.9 1.7 0 3.5-.1 5.2 0 4.2.4 8.2 1.2 9.7 6 .2.7.8 1 1.6 1.1 2.4.3 3.4-.5 3.5-3 .1-6.5.2-13 .2-19.6v-1.5c-.1-.6-.5-1-1.2-1.1-1.8-.4-3.7.7-4.4 2.4-1 2.5-2.7 4.2-5.2 5.1-2.8 1.1-5.8 1.6-8.8 1.8-5 .3-10.1.6-15.1.9-2.6.2-3-.2-3.3-2.8-.6-6.1 0-12.2-.3-18.4Z"/><path fill="#fff" d="m231.1 431.3-43.3 35.8-179.3-5.7.5-180.8 43.5-37.5 179.9 6.6-1.3 181.6z"/><path fill="#263c93" d="M5.3 277.7c2.4-1.1 4.2-3.1 6.3-4.7 12.4-9.9 24.7-19.8 37.1-29.8 1.8-1.5 3.7-2.2 6.1-2.1 17.6.6 35.2 1.1 52.8 1.8 10.9.4 21.8.4 32.7 1.1 10.4.6 20.8.5 31.2 1.1 16 .9 32.1.9 48.1 1.5 4.3.1 8.5.4 12.8.7 2.6.2 3 .6 2.9 3.3 0 6.9-.1 13.8-.2 20.7 0 6.4-.4 12.8-.2 19.2.4 10.7-.4 21.4 0 32.1.3 13.4-.4 26.8 0 40.3.3 13.4-.2 26.8-.2 40.3v25.9c0 2.3-.8 3.8-2.5 5.2-7.8 6.7-15.5 13.5-23.3 20.3-4.5 4-9.1 7.8-13.7 11.8-1.4 1.2-2.8 2.4-4 3.9-12.8-.2-25.7-.5-38.5-.7-.7-.4-1.5-.4-2.3-.4-9.1-.3-18.3-.5-27.4-1-14.8-.8-29.5-.5-44.3-1.4-9.2-.6-18.5-.5-27.7-1-14-.7-28-1-42-1.5-3.8-.1-3.9-.3-4-4v-.9c0-10.1.2-20.2 0-30.3-.3-17.7.7-35.4.2-53.1-.3-9.4.3-18.8 0-28.3-.3-10.4.3-20.8 0-31.2-.2-7.3.1-14.6.2-21.9 0-1.2.2-2.3-.4-3.4 0-4.5.2-9 .2-13.4ZM185.4 327h-.1v-3.5c.1-9.9.3-19.8 0-29.8 0-2.6-.3-2.8-2.8-3.1-2-.2-4.1-.4-6.1-.5-7.9-.3-15.7-.5-23.6-.8-16.1-.7-32.3-.7-48.4-1.5-12.9-.7-25.9-.4-38.8-1.3-7.9-.5-15.7-.4-23.6-.9-8.3-.5-16.7-.5-25.1-.6-4.2 0-4.2 0-4.3 4.2-.1 12.3-.3 24.5 0 36.8.2 13.2-.6 26.4-.1 39.7.3 7.7 0 15.4 0 23-.1 20.1-.2 40.3-.2 60.4v6.4c0 2.4.4 2.8 2.8 3.2.6 0 1.2.1 1.7.1 12.1.4 24.1.4 36.2 1.2 7.9.5 15.7.5 23.6.9 15.3.7 30.7.8 46.1 1.5 8.5.4 17.1.2 25.7.8 11 .7 22 .5 32.9 1.4 3 .2 3.4-.3 3.5-3.2v-2c0-11.4.5-22.7.1-34.1-.3-8.8 0-17.7 0-26.5-.2-17 .6-34 .2-51.1-.1-6.8.2-13.6.3-20.4Z"/><path fill="#263c93" d="M26.4 419.5c.1-6.8.5-13.6.3-20.4-.2-7.6.2-15.2 0-22.8-.5-15.3.4-30.5.1-45.8-.2-8.9 0-17.7 0-26.5 0-4.3.2-4.5 4.5-4.3 11.8.4 23.5.7 35.3 1.2 13.4.5 26.8.7 40.2 1.4 15 .7 29.9.8 44.9 1.4 5.3.2 10.7.5 16 .7 3 .1 3.5.6 3.4 3.8 0 8.9-.4 17.9-.3 26.8.2 15.1 0 30.1-.2 45.2-.1 11.6 0 23.1 0 34.7 0 10.1-.1 20.2-.1 30.3 0 4.2-.2 4.3-4.3 4.2-9.2-.2-18.5-.2-27.7-.8-8.3-.5-16.5-.3-24.8-.9-11.4-.8-22.8-.6-34.1-1.1-14.3-.7-28.6-1-42.9-1.4-2.6 0-5.2-.4-7.9-.6-1.5 0-2.3-.8-2.4-2.3 0-1.3-.2-2.5-.2-3.8 0-6.3.2-12.6.3-19h-.3Zm33-98.1h-5.5c-2.4 0-4.9 0-7.3-.1-.9 0-1.8 0-2.1 1.1-.7 1.9 0 3.7 1.8 4.5 2.2 1 3.6 2.5 4.4 4.8 1.1 2.9 1.5 5.8 1.5 8.9 0 9.2-.1 18.5 0 27.7.1 10.4-.3 20.8-.3 31.2 0 4.3.3 8.5-.3 12.8-.5 4.1-1.6 7.8-6.2 9.3-1.5.5-1.9 1.7-1.5 3.6.3 1.5.8 1.9 3 2 11.5.4 22.9.8 34.4 1.2 7.2.2 14.4.2 21.6.7 6 .4 12 0 18-.5 3.7-.3 7.3-1.2 10.7-2.7 6-2.5 10-6.9 12-13.1 1.6-4.9 1.9-9.9 1.4-15-.8-7.7-3.8-14.2-9.8-19.2-1.9-1.6-4.1-3-6.3-4.1-2.5-1.3-2.4-1.8-.2-3.2.3-.2.7-.4 1-.6 4.6-2.8 7.7-6.8 9.4-11.9 1.5-4.7 1.6-9.5 1-14.4-1.2-9.1-6.2-15-14.8-18.1-7.1-2.5-14.5-3-21.8-3.3-14.7-.6-29.4-.8-44-1.5Z"/><path fill="#263c93" d="M91.5 420c-3.5-.2-7 0-10.5-.6-2.3-.4-2.5-.5-2.5-2.7 0-12.6-.4-25.3 0-37.9 0-2.5.6-3.1 3.2-2.8 5.4.7 10.9.4 16.3.6 3.8.2 7.5.8 11 2.5 4.4 2.2 7.1 5.6 8.4 10.3 1.7 6.2 1.8 12.4 0 18.7-1.7 6-5.5 9.6-11.5 11.1-4.8 1.2-9.6.9-14.5.8ZM90.4 367.4c-2.9 0-5.8 0-8.8-.2-2.7-.1-3.2-.6-3.2-3.4 0-8.4.2-16.7.3-25.1v-5.2c0-2.1.4-2.7 2.4-2.7 4.4.1 8.8 0 13.1.5 2.7.4 5.4.3 8.1.9 6.5 1.4 10.2 5.2 11.2 11.8.7 4.4.6 8.7-.2 13-1.1 5.5-4.6 8.9-10.1 10-4.3.8-8.5.4-12.8.3Z"/><path fill="#fff" d="m354.3 47 .7 181.9-56.5 26.1-175.6-4.5-2.3-179.2L177 43.9 354.3 47z"/><path fill="#208442" d="M228 256.8c-22.9-.4-45.7-.6-68.6-1.3-12.3-.4-24.7-.7-37-1-2.9 0-3.1-.3-3.2-3.2V242c.2-10.1-.1-20.2-.2-30.3-.2-12.8-.2-25.7-.5-38.5-.1-5.9 0-11.9-.2-17.8-.3-9.2 0-18.5-.2-27.7-.2-11.4-.2-22.7-.5-34.1-.2-7.8.3-15.6-.5-23.3-.2-1.9.7-3 2.4-3.8 6.4-2.8 12.8-5.7 19.2-8.5 8.5-3.7 16.9-7.4 25.4-11.1 2.7-1.2 5.4-2.3 8-3.5 2.4-1.1 4.8-1.4 7.4-1.4 15.8.3 31.5.6 47.3.8 7.4.1 14.8.4 22.2.4 34.5-.1 69.1 1.1 103.6 1.5 5 0 4.9 0 5.1 5.1.4 15.8.3 31.5.4 47.3 0 12 .2 23.9.4 35.9.3 15.5.3 30.9.4 46.4 0 7.5 0 15 .2 22.4.3 8.6-.2 17.1.5 25.7.2 2.7-.9 4.2-3.4 5.4-12.4 5.8-24.7 11.8-37.2 17.7-4.8 2.3-9.7 4.4-14.5 6.8-1.8.9-3.7 1-5.7.9-23.6-.4-47.3-.8-70.9-1.3Zm-17.7-6.3c26.8.6 53.5 1 80.3 1.5h2.9c1.3 0 2-.7 2-2v-2.9c0-5.9-.2-11.9-.2-17.8 0-13 0-26.1-.4-39.1-.2-8 0-15.9-.2-23.9-.3-8.3 0-16.5-.1-24.8-.2-8.3-.1-16.5-.2-24.8-.1-11-.4-22-.2-33 0-1.3-.1-2.5-.3-3.8-.3-2.2-.5-2.4-2.7-2.6h-1.5c-54-.9-108-1.9-162-2.8h-2c-1.5 0-2.1.8-2.1 2.2v1.5c.6 9.6.2 19.2.4 28.9.2 12.1.3 24.1.5 36.2.2 9 0 18.1.3 27.1.1 6.2 0 12.4.1 18.7.2 12.8.2 25.7.5 38.5.1 5.5 0 11.1 0 16.6 0 4.6.1 4.8 4.7 4.9 26.8.5 53.5.9 80.3 1.4Z"/><path fill="#208442" d="M209 90.4c22.3.4 44.6.8 66.8 1.2 4.2 0 4.4.3 4.4 4.6-.2 13.4 0 26.8.2 40.3 0 12.7.2 25.5.5 38.2.2 8.6-.2 17.1.1 25.7.3 10.7.5 21.4.5 32.1 0 5 0 5-5 5-43.8-.8-87.6-1.6-131.3-2.3-1.2 0-2.3 0-3.5-.1-1.4 0-2.1-.8-2.2-2.2v-1.5c.1-9.7-.2-19.4-.2-29.2 0-14.1-.5-28.2-.5-42.3 0-5.5-.1-11.1-.1-16.6 0-15-.7-29.9-.4-44.9 0-2.1-.5-4.3-.3-6.4.2-2.1.6-2.5 2.7-2.6h2.9l65.7 1.2Zm40.1 130.4c7.9.1 15.8.3 23.6.4 1.9 0 2.5-.5 2.6-2 .1-2-.5-3.3-2.1-3.6-5.5-1.2-9.3-4.8-12-9.5-3.6-6.3-5.9-13.1-8.6-19.7-3.5-8.3-6.8-16.7-10.2-25.1-3.5-8.4-7-16.9-10.4-25.3-2.7-6.5-5.4-12.9-7.9-19.4-1-2.5-2.4-3.5-5.2-3.5-12.6 0-25.3-.4-37.9-.6h-2c-1.4 0-2.2.5-2.2 2-.1 2.3.1 3.1 1.7 3.5 1.4.3 2.9.5 4.3.7 3.5.6 5.5 2.8 5.5 6.4 0 2.5-.7 4.8-1.6 7.1-1.2 3.1-2.4 6.2-3.6 9.2-2.8 7.1-5.7 14.3-8.5 21.4-3 7.6-5.9 15.2-9 22.7-2.5 6-4.4 12.2-7.5 18-2.6 4.9-6.2 8.4-11.8 9.6-2.1.5-2.5 1.2-2.2 3.7.2 1.8.5 2.1 2.7 2.2 4.4.1 8.8.2 13.1.3 4.9 0 9.7.2 14.6.3 2.2 0 2.4-.3 2.6-2.2.2-2.4-.2-3-2.1-3.3-1.1-.2-2.3-.3-3.4-.7-2.8-.8-4.3-3-4.3-5.9 0-1.8.5-3.5 1-5.1 3.3-9.6 7.4-18.8 10.9-28.3.7-2 2.3-2.1 4-2.1 10.9.2 21.8.4 32.7.5 2.5 0 3.8 1.1 4.7 3.4 2.6 6.8 5.6 13.5 8.3 20.2 1.5 3.7 3.1 7.3 3.7 11.3.6 3.9-1 6.4-4.9 7.2-.9.2-1.9.2-2.9.3-1.1 0-1.7.6-1.9 1.8-.4 2.8.4 3.7 3.2 3.8 7.7.2 15.4.3 23 .4Z"/><path fill="#208442" d="M199.3 163.5c-4.2 0-8.4 0-12.5-.2-2.8 0-3.3-.8-2.2-3.4 3.7-9.3 7.5-18.5 11.2-27.8.7-1.8 1.3-3.7 2.2-5.4.6-1.2 1.4-1.2 2.1 0 .7 1.2 1.2 2.4 1.7 3.7l5.4 13.5c2.3 5.7 4.7 11.3 6.9 17 1 2.4.6 3-2 3-4.3 0-8.5-.1-12.8-.2Z"/></svg>